<mxfile host="65bd71144e">
    <diagram id="OegJ9Nn6N-6bbSoRedIr" name="ページ1">
        <mxGraphModel dx="1560" dy="511" grid="1" gridSize="10" guides="1" tooltips="1" connect="1" arrows="1" fold="1" page="1" pageScale="1" pageWidth="827" pageHeight="1169" math="1" shadow="0">
            <root>
                <mxCell id="0"/>
                <mxCell id="1" parent="0"/>
                <mxCell id="207" value="`V_R`" style="text;html=1;align=center;verticalAlign=middle;resizable=0;points=[];autosize=1;strokeColor=none;fillColor=none;" parent="1" vertex="1">
                    <mxGeometry x="289" y="230" width="50" height="30" as="geometry"/>
                </mxCell>
                <mxCell id="216" value="" style="endArrow=none;html=1;strokeWidth=1;" parent="1" edge="1">
                    <mxGeometry width="100" relative="1" as="geometry">
                        <mxPoint x="40" y="160" as="sourcePoint"/>
                        <mxPoint x="40" y="220" as="targetPoint"/>
                    </mxGeometry>
                </mxCell>
                <mxCell id="218" value="" style="endArrow=none;html=1;strokeWidth=1;" parent="1" edge="1">
                    <mxGeometry width="100" relative="1" as="geometry">
                        <mxPoint x="39" y="260" as="sourcePoint"/>
                        <mxPoint x="39" y="320" as="targetPoint"/>
                    </mxGeometry>
                </mxCell>
                <mxCell id="219" value="" style="endArrow=none;html=1;strokeWidth=1;startArrow=none;" parent="1" source="228" edge="1">
                    <mxGeometry width="100" relative="1" as="geometry">
                        <mxPoint x="320" y="320" as="sourcePoint"/>
                        <mxPoint x="40" y="320" as="targetPoint"/>
                    </mxGeometry>
                </mxCell>
                <mxCell id="226" value="" style="endArrow=none;html=1;strokeWidth=1;startArrow=none;" parent="1" edge="1">
                    <mxGeometry width="100" relative="1" as="geometry">
                        <mxPoint x="120" y="160" as="sourcePoint"/>
                        <mxPoint x="40" y="161" as="targetPoint"/>
                    </mxGeometry>
                </mxCell>
                <mxCell id="229" value="" style="endArrow=none;html=1;strokeWidth=1;startArrow=none;" parent="1" source="268" target="228" edge="1">
                    <mxGeometry width="100" relative="1" as="geometry">
                        <mxPoint x="315" y="320" as="sourcePoint"/>
                        <mxPoint x="80" y="320" as="targetPoint"/>
                    </mxGeometry>
                </mxCell>
                <mxCell id="228" value="" style="ellipse;whiteSpace=wrap;html=1;aspect=fixed;fillColor=#2c2626;" parent="1" vertex="1">
                    <mxGeometry x="215" y="315" width="10" height="10" as="geometry"/>
                </mxCell>
                <mxCell id="232" value="" style="ellipse;whiteSpace=wrap;html=1;aspect=fixed;fillColor=#2c2626;" parent="1" vertex="1">
                    <mxGeometry x="274" y="156" width="10" height="10" as="geometry"/>
                </mxCell>
                <mxCell id="242" value="" style="endArrow=none;html=1;strokeWidth=1;" parent="1" edge="1">
                    <mxGeometry width="100" relative="1" as="geometry">
                        <mxPoint x="320" y="160.5" as="sourcePoint"/>
                        <mxPoint x="320" y="160.5" as="targetPoint"/>
                    </mxGeometry>
                </mxCell>
                <mxCell id="245" value="" style="endArrow=none;html=1;strokeWidth=1;" parent="1" edge="1">
                    <mxGeometry width="100" relative="1" as="geometry">
                        <mxPoint x="320" y="320" as="sourcePoint"/>
                        <mxPoint x="320" y="320" as="targetPoint"/>
                    </mxGeometry>
                </mxCell>
                <mxCell id="255" value="`V_s`" style="text;html=1;align=center;verticalAlign=middle;resizable=0;points=[];autosize=1;strokeColor=none;fillColor=none;" parent="1" vertex="1">
                    <mxGeometry x="-20" y="222.5" width="50" height="30" as="geometry"/>
                </mxCell>
                <mxCell id="265" value="" style="pointerEvents=1;verticalLabelPosition=bottom;shadow=0;dashed=0;align=center;html=1;verticalAlign=top;shape=mxgraph.electrical.signal_sources.source;aspect=fixed;points=[[0.5,0,0],[1,0.5,0],[0.5,1,0],[0,0.5,0]];elSignalType=ac;" parent="1" vertex="1">
                    <mxGeometry x="17" y="215" width="45" height="45" as="geometry"/>
                </mxCell>
                <mxCell id="266" value="" style="endArrow=none;html=1;strokeWidth=1;startArrow=none;" parent="1" source="232" target="230" edge="1">
                    <mxGeometry width="100" relative="1" as="geometry">
                        <mxPoint x="274" y="161" as="sourcePoint"/>
                        <mxPoint x="125" y="161" as="targetPoint"/>
                    </mxGeometry>
                </mxCell>
                <mxCell id="230" value="" style="ellipse;whiteSpace=wrap;html=1;aspect=fixed;fillColor=#2c2626;" parent="1" vertex="1">
                    <mxGeometry x="216.5" y="156" width="10" height="10" as="geometry"/>
                </mxCell>
                <mxCell id="268" value="" style="ellipse;whiteSpace=wrap;html=1;aspect=fixed;fillColor=#2c2626;" parent="1" vertex="1">
                    <mxGeometry x="274" y="315" width="10" height="10" as="geometry"/>
                </mxCell>
                <mxCell id="270" value="" style="pointerEvents=1;verticalLabelPosition=bottom;shadow=0;dashed=0;align=center;html=1;verticalAlign=top;shape=mxgraph.electrical.capacitors.capacitor_1;rotation=90;" parent="1" vertex="1">
                    <mxGeometry x="142" y="225" width="158" height="30" as="geometry"/>
                </mxCell>
                <mxCell id="274" value="`Q_c`" style="text;html=1;align=center;verticalAlign=middle;resizable=0;points=[];autosize=1;strokeColor=none;fillColor=none;" parent="1" vertex="1">
                    <mxGeometry x="170" y="224.5" width="50" height="30" as="geometry"/>
                </mxCell>
                <mxCell id="275" value="`Y`" style="text;html=1;align=center;verticalAlign=middle;resizable=0;points=[];autosize=1;strokeColor=none;fillColor=none;" parent="1" vertex="1">
                    <mxGeometry x="234" y="225" width="40" height="30" as="geometry"/>
                </mxCell>
                <mxCell id="278" value="" style="pointerEvents=1;verticalLabelPosition=bottom;shadow=0;dashed=0;align=center;html=1;verticalAlign=top;shape=mxgraph.electrical.resistors.resistor_1;rotation=90;" vertex="1" parent="1">
                    <mxGeometry x="249.5" y="186" width="60" height="20" as="geometry"/>
                </mxCell>
                <mxCell id="279" value="" style="pointerEvents=1;verticalLabelPosition=bottom;shadow=0;dashed=0;align=center;html=1;verticalAlign=top;shape=mxgraph.electrical.inductors.inductor_3;rotation=90;" vertex="1" parent="1">
                    <mxGeometry x="234" y="270" width="100" height="8" as="geometry"/>
                </mxCell>
                <mxCell id="280" value="" style="endArrow=classic;html=1;" edge="1" parent="1">
                    <mxGeometry width="50" height="50" relative="1" as="geometry">
                        <mxPoint x="300" y="320" as="sourcePoint"/>
                        <mxPoint x="300" y="170" as="targetPoint"/>
                    </mxGeometry>
                </mxCell>
                <mxCell id="281" value="" style="pointerEvents=1;verticalLabelPosition=bottom;shadow=0;dashed=0;align=center;html=1;verticalAlign=top;shape=mxgraph.electrical.inductors.inductor_3;rotation=0;" vertex="1" parent="1">
                    <mxGeometry x="117" y="152" width="100" height="8" as="geometry"/>
                </mxCell>
                <mxCell id="282" value="`X`" style="text;html=1;align=center;verticalAlign=middle;resizable=0;points=[];autosize=1;strokeColor=none;fillColor=none;" vertex="1" parent="1">
                    <mxGeometry x="142.5" y="122" width="40" height="30" as="geometry"/>
                </mxCell>
                <mxCell id="283" value="" style="endArrow=classic;html=1;" edge="1" parent="1">
                    <mxGeometry width="50" height="50" relative="1" as="geometry">
                        <mxPoint x="57" y="151" as="sourcePoint"/>
                        <mxPoint x="117" y="151" as="targetPoint"/>
                    </mxGeometry>
                </mxCell>
                <mxCell id="284" value="`I-I_c`" style="text;html=1;align=center;verticalAlign=middle;resizable=0;points=[];autosize=1;strokeColor=none;fillColor=none;" vertex="1" parent="1">
                    <mxGeometry x="60" y="122" width="50" height="30" as="geometry"/>
                </mxCell>
                <mxCell id="289" value="" style="endArrow=classic;html=1;" edge="1" parent="1">
                    <mxGeometry width="50" height="50" relative="1" as="geometry">
                        <mxPoint x="210" y="215" as="sourcePoint"/>
                        <mxPoint x="210" y="185" as="targetPoint"/>
                    </mxGeometry>
                </mxCell>
                <mxCell id="290" value="`I_c`" style="text;html=1;align=center;verticalAlign=middle;resizable=0;points=[];autosize=1;strokeColor=none;fillColor=none;" vertex="1" parent="1">
                    <mxGeometry x="160" y="186" width="50" height="30" as="geometry"/>
                </mxCell>
                <mxCell id="291" value="" style="endArrow=classic;html=1;" edge="1" parent="1">
                    <mxGeometry width="50" height="50" relative="1" as="geometry">
                        <mxPoint x="233" y="150" as="sourcePoint"/>
                        <mxPoint x="274" y="150" as="targetPoint"/>
                    </mxGeometry>
                </mxCell>
                <mxCell id="292" value="`I`" style="text;html=1;align=center;verticalAlign=middle;resizable=0;points=[];autosize=1;strokeColor=none;fillColor=none;" vertex="1" parent="1">
                    <mxGeometry x="239" y="120" width="30" height="30" as="geometry"/>
                </mxCell>
            </root>
        </mxGraphModel>
    </diagram>
</mxfile>